<svg width="36" height="25" viewBox="0 0 36 25" fill="none" xmlns="http://www.w3.org/2000/svg">
<path d="M14.1523 6.21094H21.8531V18.7885H14.1523V6.21094Z" fill="#FF5F00"/>
<path d="M14.9444 12.5012C14.9434 11.2901 15.218 10.0947 15.7472 9.00534C16.2765 7.91601 17.0466 6.96134 17.9993 6.21358C16.8194 5.28625 15.4023 4.7096 13.9101 4.54954C12.4179 4.38947 10.9108 4.65244 9.56101 5.3084C8.21121 5.96436 7.07318 6.98683 6.277 8.25897C5.48081 9.53111 5.05859 11.0016 5.05859 12.5023C5.05859 14.0031 5.48081 15.4736 6.277 16.7457C7.07318 18.0178 8.21121 19.0403 9.56101 19.6963C10.9108 20.3522 12.4179 20.6152 13.9101 20.4551C15.4023 20.2951 16.8194 19.7184 17.9993 18.7911C17.0463 18.0431 16.276 17.0881 15.7467 15.9983C15.2175 14.9086 14.9431 13.7127 14.9444 12.5012V12.5012Z" fill="#EB001B"/>
<path d="M30.1767 17.4575V17.1998H30.2878V17.1465H30.0234V17.1998H30.1279V17.4576L30.1767 17.4575ZM30.69 17.4575V17.1465H30.61L30.5167 17.3687L30.4233 17.1465H30.3434V17.4575H30.4011V17.222L30.4878 17.4242H30.5478L30.6344 17.222V17.4575H30.69Z" fill="#F79E1B"/>
<path d="M30.9419 12.5005C30.9419 14.0014 30.5196 15.4719 29.7232 16.7441C28.9269 18.0163 27.7887 19.0388 26.4387 19.6946C25.0888 20.3505 23.5815 20.6133 22.0892 20.453C20.5969 20.2927 19.1799 19.7157 18 18.7881C18.9523 18.0397 19.7222 17.0848 20.2516 15.9954C20.781 14.906 21.0561 13.7106 21.0561 12.4994C21.0561 11.2882 20.781 10.0928 20.2516 9.00336C19.7222 7.91397 18.9523 6.95904 18 6.21062C19.1799 5.28299 20.5969 4.70606 22.0892 4.54576C23.5815 4.38546 25.0888 4.64826 26.4388 5.30413C27.7887 5.95999 28.9269 6.98246 29.7233 8.25465C30.5196 9.52684 30.9419 10.9974 30.9419 12.4983V12.5005Z" fill="#F79E1B"/>
</svg>
