<svg width="41" height="13" viewBox="0 0 41 13" fill="none" xmlns="http://www.w3.org/2000/svg">
<path d="M20.8202 4.15595C20.7972 5.9669 22.4341 6.97743 23.6671 7.5783C24.934 8.19474 25.3595 8.59008 25.3545 9.14142C25.345 9.9851 24.3439 10.3575 23.4072 10.3719C21.7728 10.3973 20.8225 9.93069 20.0671 9.5778L19.4783 12.3328C20.2363 12.682 21.6398 12.9866 23.0952 13C26.5116 13 28.7466 11.3136 28.7587 8.6989C28.7721 5.3805 24.1688 5.19682 24.2002 3.71359C24.2111 3.26384 24.6402 2.7839 25.5806 2.66186C26.0461 2.60022 27.331 2.55304 28.7878 3.2239L29.3596 0.558415C28.5762 0.273153 27.5693 0 26.3156 0C23.1001 0 20.8384 1.70937 20.8202 4.15595ZM34.8538 0.229593C34.23 0.229593 33.7043 0.593482 33.4696 1.1519L28.5895 12.8042H32.0034L32.6827 10.9267H36.8544L37.2485 12.8042H40.2574L37.6317 0.229593H34.8538ZM35.3314 3.62647L36.3166 8.34838H33.6184L35.3314 3.62647ZM16.681 0.22975L13.9901 12.8041H17.2432L19.9329 0.229436L16.681 0.22975ZM11.8685 0.229436L8.48252 8.78838L7.11282 1.51107C6.95211 0.698687 6.31743 0.229593 5.61261 0.229593H0.077527L0 0.59474C1.13633 0.841317 2.4274 1.23902 3.20959 1.66455C3.68827 1.92449 3.82477 2.15173 3.98202 2.76943L6.57627 12.8042H10.014L15.2846 0.229593L11.8685 0.229436Z" fill="url(#paint0_linear_3298_19265)"/>
<defs>
<linearGradient id="paint0_linear_3298_19265" x1="18.5079" y1="13.2608" x2="18.8842" y2="-0.0904035" gradientUnits="userSpaceOnUse">
<stop stop-color="#222357"/>
<stop offset="1" stop-color="#254AA5"/>
</linearGradient>
</defs>
</svg>
