<svg width="175" height="100" viewBox="0 0 175 100" fill="none" xmlns="http://www.w3.org/2000/svg">
<path d="M48.5 19C48.5 18.1716 47.8284 17.5 47 17.5C46.1716 17.5 45.5 18.1716 45.5 19H48.5ZM6.31839 90.8889L4.93473 91.4681L6.31839 90.8889ZM12.0962 50L11.59 48.588L12.0962 50ZM59.2073 59.7778L58.6708 61.1786L59.2073 59.7778ZM169.652 46.4444L171.019 47.0618L169.652 46.4444ZM152.096 0L156.64 16.7138L168.843 4.42153L152.096 0ZM45.5 19C45.5 33.5351 38.5847 58.8444 30.054 76.771C27.9295 81.2355 25.7217 85.2049 23.5193 88.4118C21.3034 91.6384 19.1539 94.0026 17.1731 95.3524C15.2118 96.689 13.6323 96.9036 12.2981 96.3264C10.8545 95.7019 9.23274 93.9663 7.70205 90.3097L4.93473 91.4681C6.57021 95.3751 8.59441 97.9928 11.107 99.0798C13.7291 100.214 16.4162 99.4985 18.8625 97.8315C21.2893 96.1778 23.6882 93.4652 25.9923 90.1101C28.31 86.7353 30.5938 82.6183 32.7629 78.0601C41.4068 59.8957 48.5 34.1334 48.5 19H45.5ZM7.70205 90.3097C5.51225 85.0785 3.34092 76.3802 3.50918 68.407C3.67916 60.3525 6.18447 53.7128 12.6024 51.412L11.59 48.588C3.32668 51.5503 0.686676 59.9646 0.509848 68.3437C0.331306 76.804 2.61168 85.9186 4.93473 91.4681L7.70205 90.3097ZM12.6024 51.412C20.4533 48.5975 28.1429 49.5326 35.8253 51.9544C39.6713 53.1668 43.4838 54.7416 47.2975 56.3862C51.089 58.0213 54.909 59.7379 58.6708 61.1786L59.7438 58.377C56.0587 56.9657 52.3362 55.2921 48.4855 53.6315C44.657 51.9805 40.7274 50.3542 36.7272 49.0932C28.7172 46.5681 20.2981 45.4662 11.59 48.588L12.6024 51.412ZM58.6708 61.1786C72.6545 66.534 96.5858 71.8096 119.014 71.4343C141.301 71.0614 162.883 65.0758 171.019 47.0618L168.285 45.8271C160.94 62.0903 141.119 68.064 118.964 68.4347C96.9501 68.8031 73.3992 63.6067 59.7438 58.377L58.6708 61.1786ZM171.019 47.0618C175.008 38.2289 175.585 31.1878 173.732 24.9567C171.899 18.7925 167.744 13.6396 162.756 8.46936L160.597 10.5522C165.525 15.6601 169.24 20.3773 170.856 25.812C172.453 31.1798 172.06 37.4665 168.285 45.8271L171.019 47.0618Z" fill="#FF0022"/>
</svg>
