<svg width="32" height="32" viewBox="0 0 32 32" fill="none" xmlns="http://www.w3.org/2000/svg">
<circle cx="16" cy="16" r="16" fill="black" fill-opacity="0.53"/>
<g clip-path="url(#clip0_3139_19512)">
<path d="M23.3327 20.6667C23.3327 21.0203 23.1922 21.3594 22.9422 21.6095C22.6921 21.8595 22.353 22 21.9993 22H9.99935C9.64573 22 9.30659 21.8595 9.05654 21.6095C8.80649 21.3594 8.66602 21.0203 8.66602 20.6667V13.3333C8.66602 12.9797 8.80649 12.6406 9.05654 12.3905C9.30659 12.1405 9.64573 12 9.99935 12H12.666L13.9993 10H17.9993L19.3327 12H21.9993C22.353 12 22.6921 12.1405 22.9422 12.3905C23.1922 12.6406 23.3327 12.9797 23.3327 13.3333V20.6667Z" stroke="white" stroke-width="1.6" stroke-linecap="round" stroke-linejoin="round"/>
<path d="M16.0007 19.3333C17.4734 19.3333 18.6673 18.1394 18.6673 16.6667C18.6673 15.1939 17.4734 14 16.0007 14C14.5279 14 13.334 15.1939 13.334 16.6667C13.334 18.1394 14.5279 19.3333 16.0007 19.3333Z" stroke="white" stroke-width="1.6" stroke-linecap="round" stroke-linejoin="round"/>
</g>
<defs>
<clipPath id="clip0_3139_19512">
<rect width="16" height="16" fill="white" transform="translate(8 8)"/>
</clipPath>
</defs>
</svg>
