<svg width="26" height="25" viewBox="0 0 26 25" fill="none" xmlns="http://www.w3.org/2000/svg">
<path d="M1.47656 1.32031H5.66704L8.47466 15.3479C8.57046 15.8303 8.83285 16.2635 9.2159 16.5719C9.59894 16.8802 10.0782 17.044 10.5699 17.0346H20.7528C21.2444 17.044 21.7237 16.8802 22.1068 16.5719C22.4898 16.2635 22.7522 15.8303 22.848 15.3479L24.5242 6.55841H6.71466M10.9051 22.2727C10.9051 22.8513 10.4361 23.3203 9.85751 23.3203C9.27893 23.3203 8.8099 22.8513 8.8099 22.2727C8.8099 21.6941 9.27893 21.2251 9.85751 21.2251C10.4361 21.2251 10.9051 21.6941 10.9051 22.2727ZM22.4289 22.2727C22.4289 22.8513 21.9599 23.3203 21.3813 23.3203C20.8027 23.3203 20.3337 22.8513 20.3337 22.2727C20.3337 21.6941 20.8027 21.2251 21.3813 21.2251C21.9599 21.2251 22.4289 21.6941 22.4289 22.2727Z" stroke="black" stroke-width="1.6" stroke-linecap="round" stroke-linejoin="round"/>
</svg>
