<svg width="41" height="40" viewBox="0 0 41 40" fill="none" xmlns="http://www.w3.org/2000/svg">
<circle cx="20.5" cy="20" r="20" fill="#3E2F8A"/>
<path d="M20.5 13C14.986 13 10.5 17.486 10.5 23C10.4987 24.5434 10.8586 26.0656 11.551 27.445C11.721 27.785 12.067 28 12.446 28H28.553C28.932 28 29.279 27.785 29.449 27.445C30.1414 26.0656 30.5013 24.5434 30.5 23C30.5 17.486 26.014 13 20.5 13ZM25.522 18.022L21.56 24.06C21.4498 24.2283 21.3074 24.3733 21.1411 24.4865C20.9748 24.5998 20.7878 24.6791 20.5908 24.72C20.3938 24.7608 20.1906 24.7624 19.993 24.7247C19.7953 24.687 19.6071 24.6106 19.439 24.5C19.2263 24.3609 19.0516 24.171 18.9306 23.9474C18.8097 23.7238 18.7464 23.4737 18.7464 23.2195C18.7464 22.9653 18.8097 22.7152 18.9306 22.4916C19.0516 22.268 19.2263 22.0781 19.439 21.939L25.477 17.977C25.4843 17.9725 25.4931 17.971 25.5015 17.9728C25.5099 17.9747 25.5173 17.9798 25.522 17.987C25.5252 17.9923 25.5269 17.9983 25.5269 18.0045C25.5269 18.0107 25.5252 18.0167 25.522 18.022Z" fill="white"/>
</svg>
