<svg width="40" height="40" viewBox="0 0 40 40" fill="none" xmlns="http://www.w3.org/2000/svg">
<circle cx="20" cy="20" r="20" fill="#7B8A2F"/>
<path d="M27.2943 13.3359H12.2943C12.0733 13.3359 11.8613 13.4237 11.705 13.58C11.5487 13.7363 11.4609 13.9483 11.4609 14.1693V25.8359C11.4609 26.278 11.6365 26.7019 11.9491 27.0144C12.2617 27.327 12.6856 27.5026 13.1276 27.5026H26.4609C26.903 27.5026 27.3269 27.327 27.6394 27.0144C27.952 26.7019 28.1276 26.278 28.1276 25.8359V14.1693C28.1276 13.9483 28.0398 13.7363 27.8835 13.58C27.7272 13.4237 27.5153 13.3359 27.2943 13.3359ZM19.7943 20.8359C17.0368 20.8359 14.7943 18.5934 14.7943 15.8359H16.4609C16.4609 17.6743 17.9559 19.1693 19.7943 19.1693C21.6326 19.1693 23.1276 17.6743 23.1276 15.8359H24.7943C24.7943 18.5934 22.5518 20.8359 19.7943 20.8359Z" fill="white"/>
</svg>
