<svg width="215" height="121" viewBox="0 0 215 121" fill="none" xmlns="http://www.w3.org/2000/svg">
<path d="M3.5 2.16016C3.5 1.33173 2.82843 0.660156 2 0.660156C1.17157 0.660156 0.5 1.33173 0.5 2.16016H3.5ZM46.3184 114.049L44.9347 114.628L46.3184 114.049ZM52.0962 73.1602L51.59 71.7481L52.0962 73.1602ZM99.2073 82.9379L98.6708 84.3387L99.2073 82.9379ZM209.652 69.6046L211.019 70.222L209.652 69.6046ZM192.096 23.1602L196.64 39.8739L208.843 27.5817L192.096 23.1602ZM0.5 2.16016C0.5 6.06465 1.43021 11.2164 2.97268 17.1069C4.52155 23.0217 6.71393 29.7768 9.2949 36.9232C14.4573 51.2173 21.2014 67.1512 27.5413 81.1929C33.8809 95.234 39.8301 107.413 43.4097 114.202C44.3044 115.898 45.0583 117.272 45.6376 118.26C45.926 118.751 46.1815 119.165 46.3962 119.48C46.5029 119.637 46.6115 119.788 46.7183 119.919C46.8006 120.02 46.9694 120.222 47.2003 120.38C47.299 120.448 47.5967 120.644 48.0268 120.666C48.2722 120.679 48.5612 120.634 48.8427 120.481C49.1205 120.33 49.3053 120.119 49.4206 119.93C49.6241 119.597 49.6471 119.275 49.6528 119.16C49.6602 119.009 49.6474 118.876 49.6355 118.785C49.5921 118.455 49.4687 118.041 49.3301 117.628C49.0332 116.742 48.4957 115.366 47.7021 113.47L44.9347 114.628C45.7242 116.514 46.2256 117.805 46.4854 118.581C46.5495 118.772 46.5948 118.92 46.625 119.03C46.6577 119.15 46.6628 119.189 46.661 119.176C46.6603 119.17 46.6517 119.108 46.6564 119.013C46.6593 118.954 46.6726 118.674 46.8597 118.368C46.9666 118.192 47.1415 117.992 47.4077 117.847C47.6775 117.7 47.9532 117.658 48.1836 117.67C48.5837 117.691 48.8447 117.87 48.9001 117.909C49.0445 118.008 49.1005 118.094 49.0447 118.025C49.0134 117.987 48.9586 117.914 48.8775 117.794C48.7166 117.558 48.4992 117.208 48.225 116.741C47.6791 115.811 46.9493 114.483 46.0634 112.802C42.5206 106.084 36.5986 93.9629 30.2756 79.9584C23.9528 65.9547 17.2427 50.098 12.1165 35.9042C9.55322 28.8067 7.39275 22.1436 5.87483 16.3469C4.35051 10.5258 3.5 5.67278 3.5 2.16016H0.5ZM47.7021 113.47C45.5122 108.239 43.3409 99.5403 43.5092 91.5671C43.6792 83.5127 46.1845 76.8729 52.6024 74.5722L51.59 71.7481C43.3267 74.7105 40.6867 83.1248 40.5098 91.5038C40.3313 99.9641 42.6117 109.079 44.9347 114.628L47.7021 113.47ZM52.6024 74.5722C60.4533 71.7577 68.1429 72.6927 75.8253 75.1145C79.6713 76.327 83.4838 77.9018 87.2975 79.5464C91.089 81.1814 94.909 82.898 98.6708 84.3387L99.7437 81.5371C96.0587 80.1259 92.3362 78.4522 88.4855 76.7916C84.657 75.1406 80.7274 73.5144 76.7272 72.2533C68.7172 69.7282 60.2981 68.6264 51.59 71.7481L52.6024 74.5722ZM98.6708 84.3387C112.655 89.6942 136.586 94.9698 159.014 94.5945C181.301 94.2215 202.883 88.236 211.019 70.222L208.285 68.9872C200.94 85.2505 181.119 91.2242 158.964 91.5949C136.95 91.9633 113.399 86.7669 99.7437 81.5371L98.6708 84.3387ZM211.019 70.222C215.008 61.389 215.585 54.3479 213.732 48.1169C211.899 41.9526 207.744 36.7997 202.756 31.6295L200.597 33.7123C205.525 38.8203 209.24 43.5375 210.856 48.9721C212.453 54.34 212.06 60.6267 208.285 68.9872L211.019 70.222Z" fill="#FF0022"/>
</svg>
