<svg width="26" height="21" viewBox="0 0 26 21" fill="none" xmlns="http://www.w3.org/2000/svg">
<path d="M4.6 7.3V1H15.4V7.3M4.6 15.4H2.8C2.32261 15.4 1.86477 15.2104 1.52721 14.8728C1.18964 14.5352 1 14.0774 1 13.6V9.1C1 8.62261 1.18964 8.16477 1.52721 7.82721C1.86477 7.48964 2.32261 7.3 2.8 7.3H17.2C17.6774 7.3 18.1352 7.48964 18.4728 7.82721C18.8104 8.16477 19 8.62261 19 9.1V13.6C19 14.0774 18.8104 14.5352 18.4728 14.8728C18.1352 15.2104 17.6774 15.4 17.2 15.4H15.4M4.6 11.8H15.4V19H4.6V11.8Z" stroke="black" stroke-width="1.4" stroke-linecap="round" stroke-linejoin="round"/>
<circle cx="18.5" cy="13.5" r="7.5" fill="white"/>
<path d="M20.625 12.375V11.25C20.625 10.0125 19.6125 9 18.375 9C17.1375 9 16.125 10.0125 16.125 11.25V12.375C15.5062 12.375 15 12.8812 15 13.5V16.875C15 17.4937 15.5062 18 16.125 18H20.625C21.2437 18 21.75 17.4937 21.75 16.875V13.5C21.75 12.8812 21.2437 12.375 20.625 12.375ZM19.5 12.375H17.25V11.25C17.25 10.6312 17.7562 10.125 18.375 10.125C18.9937 10.125 19.5 10.6312 19.5 11.25V12.375Z" fill="black"/>
</svg>
