<svg xmlns="http://www.w3.org/2000/svg" viewBox="0 0 758.39 181.89"><defs><style>.cls-1{fill:#3e2f8a;}</style></defs><title>Asset 16</title><g id="Layer_2" data-name="Layer 2"><g id="Layer_1-2" data-name="Layer 1"><path class="cls-1" d="M249.44,83.63l-.34,1.49q7.25,1.5,10.93,6.27a14.05,14.05,0,0,1,2.53,11.45q-1.5,8.64-9.55,13.87t-20.25,5.23H202.27l13.35-75.25H246q12.19,0,17.84,5.3t4,14.26a20.16,20.16,0,0,1-6,11.45A22.76,22.76,0,0,1,249.44,83.63Zm-30.95,25.2h15.3q13.82,0,15.42-8.86.81-4.5-2.3-6.79T237,90.88H221.71ZM224,77.76h15.31q12.54,0,14.15-9.2.79-4.61-1.78-6.73t-9.27-2.13h-15.3Z"/><path class="cls-1" d="M283.38,99.16q-.57,6.33,2.25,9.67t8.8,3.33a14.29,14.29,0,0,0,7.94-2.24,12.5,12.5,0,0,0,4.95-6.16l13.23,2.07a29.11,29.11,0,0,1-11.11,13.58,30.6,30.6,0,0,1-17.2,5q-12.76,0-18.75-7.77t-3.57-21.34q2.41-13.35,10.76-21.11a29,29,0,0,1,20.54-7.77q12.19,0,17.83,7.77t3.45,20.42l-.8,4.6Zm1.84-9.43h24a9.23,9.23,0,0,0-2.07-8.12c-1.92-2.1-4.64-3.16-8.17-3.16a13,13,0,0,0-8.51,2.93A17.27,17.27,0,0,0,285.22,89.73Z"/><path class="cls-1" d="M334.81,69h13.93l-6.22,13.46L346.09,84l-6.67,38H325.49Zm25.32,12.19A16.92,16.92,0,0,0,350,84.55a13,13,0,0,0-5.52,8.4l-1.15-3.8q1.6-9.54,7.25-15.24A18.25,18.25,0,0,1,364,68.21h4.37l-2.19,13Z"/><path class="cls-1" d="M374.85,69h13.93l-6.22,13.46L386.13,84l-6.67,38H365.53Zm25.32,12.19A16.9,16.9,0,0,0,390,84.55a13,13,0,0,0-5.52,8.4l-1.15-3.8q1.61-9.54,7.25-15.24a18.25,18.25,0,0,1,13.46-5.7h4.37l-2.19,13Z"/><path class="cls-1" d="M435.37,102.73,451.48,69h15.07l-33,62.59a24.18,24.18,0,0,1-7.94,9.2A17.94,17.94,0,0,1,415.47,144H401.89L404,131.49h8.4a7.78,7.78,0,0,0,4.32-1.09,9,9,0,0,0,2.93-3.74l2.07-4.72L411.79,69h15.07l4.37,33.71.12,6.44h1.49Z"/><path class="cls-1" d="M507.63,108.14a18,18,0,0,1-7.71,12,25.64,25.64,0,0,1-15.3,4.6q-9.31,0-15-4.94t-5.92-14.5l13.57-1.84q.47,10,8.4,10a8.9,8.9,0,0,0,5.41-1.61,6.51,6.51,0,0,0,2.65-4.26,3.92,3.92,0,0,0-.17-2.59,4.76,4.76,0,0,0-2-2,18.35,18.35,0,0,0-2.59-1.33c-.77-.3-1.95-.69-3.57-1.15-.38-.15-.69-.27-.92-.34-2.14-.62-3.91-1.19-5.29-1.73a31.45,31.45,0,0,1-4.66-2.36,15.39,15.39,0,0,1-4-3.22,11.06,11.06,0,0,1-2.07-4.43,14.61,14.61,0,0,1-.11-6.1,17.31,17.31,0,0,1,7.42-11.68Q482,66.38,491,66.37q18.75,0,20.48,17.37L497.5,86.39c-.3-5.83-2.8-8.74-7.47-8.74a9.38,9.38,0,0,0-5.3,1.38,5.62,5.62,0,0,0-2.53,3.68,3.71,3.71,0,0,0,1.56,4A25,25,0,0,0,490,89.5c.3.07.69.19,1.15.34q4.49,1.38,6.79,2.36a30.94,30.94,0,0,1,5.35,3.11,10.3,10.3,0,0,1,4.08,5.29A15.27,15.27,0,0,1,507.63,108.14Z"/><path class="cls-1" d="M538,80.52l-3.92,22.09q-.92,5.17.12,6.45t5.64,1.26h8.86l-2.07,11.62H533.75q-8.4,0-12-4t-1.84-14.21l4.14-23.24H515L517,69h9.21l2.64-15.54L543,52.22,540,69h16l-2.08,11.5Z"/><path class="cls-1" d="M568,106.41q-.59,2.88,1.38,4.26a9.22,9.22,0,0,0,5.4,1.38,13.54,13.54,0,0,0,8.69-2.88,11.78,11.78,0,0,0,4.43-7.36h2.3q-1.85,10.13-8,16.34a19.7,19.7,0,0,1-14.44,6.21q-7.37,0-11.4-4.32t-2.87-11.1A16.24,16.24,0,0,1,559,99.1q4.32-3.61,12.6-5.92l18.76-5-1.61,9-13.7,3.69Q568.72,102.62,568,106.41Zm30.37,15.53h-14l6.22-13.23L587,107l3.57-20a6.25,6.25,0,0,0-1.44-5.86q-2.13-2.19-6.27-2.19a11.23,11.23,0,0,0-7.54,2.7,14.37,14.37,0,0,0-4.43,7l-13.46-1.85a29.1,29.1,0,0,1,10.3-14.49,28,28,0,0,1,17.43-5.64q10.25,0,15.65,5.52a14.79,14.79,0,0,1,4,13.58Z"/><path class="cls-1" d="M617.4,69h13.92l-5.87,13.69L628.67,84l-6.67,38H608.08Zm30,20.71c.62-3.46.27-6.18-1-8.17s-3.45-3-6.44-3a11.35,11.35,0,0,0-8.12,3.1A14.54,14.54,0,0,0,627.64,90h-2.08q2-10.59,7.77-17a18,18,0,0,1,13.75-6.39,11.15,11.15,0,0,1,9.38,5,14.45,14.45,0,0,1,2.47,11.5l-.11.58,3.45,1-6.56,37.28h-14Zm33.6,0q.91-5.19-1.15-8.17c-1.38-2-3.68-3-6.9-3a10.36,10.36,0,0,0-7.6,3.1,15.06,15.06,0,0,0-4,8.29h-2.19q2-10.71,7.94-17a19.47,19.47,0,0,1,14.73-6.33q7.71,0,11.39,6.21t1.95,15.65l-5.86,33.48h-14Z"/><path class="cls-1" d="M708.29,69h14l-6.22,13.46L719.68,84l-4,23-4.25,1.49L713,121.94l-4,22.55H695.06Zm15.53,5.12a21,21,0,0,1,16.34-7.54q10,0,14.9,7.71t2.59,20.94q-2.42,13.8-10.47,21.57t-17.83,7.77q-9.33,0-13.18-7.54t-1.44-21.46Q717.15,81.67,723.82,74.14Zm3.8,38.37A13.68,13.68,0,0,0,738,108.14q4.15-4.38,5.58-12.55T742.4,83.05q-2.58-4.36-8.8-4.37a13.75,13.75,0,0,0-10.3,4.37q-4.2,4.38-5.63,12.54t1.2,12.55Q721.53,112.51,727.62,112.51Z"/><path class="cls-1" d="M38.27,164.26c-26.38-17.44-26.59-52.63-1.9-68.7,14.15-9.21,30.44-11.23,46.57-13.71,9.56-1.48,19.23-2.39,28.68-4.36,25.87-5.4,36.58-12,56.63-34.14a88,88,0,0,1,13.38,53.54,91.13,91.13,0,0,1-95.43,84.9c-19.42-.86-27.44-6.36-32.08-22-4.35-14.63,1.1-29.19,14.37-39,7.94-5.86,17-9.11,26.26-12,13.8-4.35,27.4-9.19,38.61-19.53-9.32,2.39-18.58,5-28,7.09-13,2.81-26.26,4.46-39.08,7.84C37.92,111.68,26,134,36.75,159.37,37.19,160.41,37.43,161.53,38.27,164.26Z"/><path class="cls-1" d="M61.13,52.13c22.34-3.7,45.41-2,67-9.89,12.81-4.69,17-10.48,17.15-23.3,13.71,8.58,14.23,18.53,1.14,28.14-12.86,9.44-28.08,12.24-43.37,14.72-17,2.76-34.26,3.61-51,8.2C27.55,76.74,9.86,90.39,4.18,118.79-4.89,84.9.64,56,22.38,31.25,45.38,5.09,74.89-4.31,109.2,1.79c7.74,1.38,13.64,5.58,15.51,13.48s-3.38,12.51-8.95,16.4c-9.36,6.55-20.35,9.08-31.17,11.93C76.54,45.73,68.34,47.47,61.13,52.13Z"/></g></g></svg>