<svg width="41" height="40" viewBox="0 0 41 40" fill="none" xmlns="http://www.w3.org/2000/svg">
<circle cx="20.082" cy="20" r="20" fill="#0050BA"/>
<path d="M28.3703 17.6474C28.3179 17.4931 28.2215 17.3576 28.093 17.2575C27.9645 17.1574 27.8095 17.0971 27.6471 17.0841L22.8969 16.7067L20.8413 12.1565C20.7759 12.0099 20.6694 11.8854 20.5347 11.7981C20.4001 11.7107 20.243 11.6642 20.0825 11.6641C19.922 11.664 19.7649 11.7103 19.6302 11.7976C19.4954 11.8848 19.3888 12.0092 19.3232 12.1556L17.2676 16.7067L12.5174 17.0841C12.3578 17.0968 12.2052 17.1551 12.0779 17.2522C11.9506 17.3493 11.854 17.481 11.7996 17.6316C11.7452 17.7822 11.7353 17.9452 11.7711 18.1013C11.807 18.2573 11.887 18.3997 12.0017 18.5115L15.512 21.9335L14.2705 27.3095C14.2328 27.4722 14.2449 27.6425 14.3052 27.7983C14.3655 27.954 14.4712 28.0881 14.6086 28.183C14.7461 28.278 14.9089 28.3294 15.0759 28.3307C15.2429 28.332 15.4065 28.283 15.5454 28.1902L20.0823 25.1656L24.6192 28.1902C24.7611 28.2844 24.9285 28.3329 25.0988 28.3292C25.2691 28.3254 25.4342 28.2696 25.5719 28.1693C25.7095 28.0689 25.8131 27.9288 25.8688 27.7678C25.9244 27.6068 25.9295 27.4326 25.8831 27.2686L24.3592 21.936L28.1387 18.5348C28.3862 18.3115 28.477 17.9632 28.3703 17.6474Z" fill="white"/>
</svg>
