<svg width="29" height="25" viewBox="0 0 29 25" fill="none" xmlns="http://www.w3.org/2000/svg">
<path d="M19.397 17.2084L14.5075 12.3188M14.5075 12.3188L9.61793 17.2084M14.5075 12.3188V23.3203M24.7633 20.1299C25.9556 19.4799 26.8974 18.4514 27.4402 17.2067C27.983 15.962 28.0958 14.572 27.7609 13.256C27.4259 11.9401 26.6623 10.7731 25.5905 9.93936C24.5187 9.10562 23.1997 8.65254 21.8418 8.65164H20.3016C19.9316 7.22052 19.242 5.8919 18.2846 4.76566C17.3272 3.63942 16.127 2.74488 14.7741 2.14928C13.4212 1.55368 11.9509 1.27252 10.4737 1.32694C8.99657 1.38137 7.55095 1.76996 6.24557 2.4635C4.94019 3.15704 3.80903 4.13749 2.93711 5.33112C2.06519 6.52476 1.47522 7.90053 1.21153 9.355C0.947852 10.8095 1.01733 12.3048 1.41474 13.7285C1.81214 15.1523 2.52714 16.4674 3.50598 17.5751" stroke="black" stroke-width="1.6" stroke-linecap="round" stroke-linejoin="round"/>
</svg>
